# xmcd CD database file
#
# Track frame offsets:
#	150
#	9143
#	20266
#	32627
#	47512
#	59423
#	72318
#	82408
#	90455
#	103904
#	114227
#	124290
#	135316
#	146514
#	158818
#	171008
#
# Disc length: 2441 seconds
#
# Revision: 1
# Processed by: cddbd v1.5.1PL0 Copyright (c) Steve Scherf et al.
# Submitted via: CDex 1.51
#
DISCID=cc098710
DTITLE=Various Artist - Country Disc 1
DYEAR=2001
DGENRE=Country
TTITLE0=Frankie Laine-Rawhide
TTITLE1=Don Gibson-Oh Lonesome Me
TTITLE2=Lynn Anderson-Stand by your man
TTITLE3=Kingston Trio-Tom Dooley
TTITLE4=Waylon Jenning-Don't think twice
TTITLE5=Stonewall Jackson-I washed my hands in muddy waters
TTITLE6=Mickey Gilley-Lonely Wine
TTITLE7=Carl Mann-Take these chains from my heart
TTITLE8=Charlie Rich-The most beautiful girl
TTITLE9=Faron Young-Live fast, Love Hard, Die Young
TTITLE10=Porter Wagoner-The green green grass of home
TTITLE11=Jerry Lee Lewis-I forgot to remember to forget
TTITLE12=Hank Locklin-Send me the pillow you dream on
TTITLE13=Willie Nelson-The shelter of your arms
TTITLE14=Conway Twitty-Crazy dreams
TTITLE15=Johnny Cash-I walked the line
EXTD=YEAR: 2001
EXTT0=
EXTT1=
EXTT2=
EXTT3=
EXTT4=
EXTT5=
EXTT6=
EXTT7=
EXTT8=
EXTT9=
EXTT10=
EXTT11=
EXTT12=
EXTT13=
EXTT14=
EXTT15=
PLAYORDER=
